#!OML:ASF F:\VICON\USERDATA\INSTALL\rory3\rory3.ASF
:FULLY-SPECIFIED
:DEGREES
1719
root -4.95954 17.6174 -3.3984 -8.56392 -33.3909 5.84998
lowerback 2.81049 1.29705 -1.12038
upperback -0.95106 1.7393 2.28569
thorax -2.65848 0.9043 2.89169
lowerneck -25.7483 4.07397 -6.53239
upperneck 16.3153 8.80172 -3.97945
head 9.2824 3.15687 0.963443
rclavicle -5.94366e-014 -1.59028e-015
rhumerus 13.2099 -56.0653 -9.94148
rradius 77.4762
rwrist -11.0598
rhand -40.4894 0.00409445
rfingers 7.12502
rthumb -13.4396 -29.5423
lclavicle -5.94366e-014 -1.59028e-015
lhumerus -0.364483 47.7166 7.37239
lradius 83.3239
lwrist 13.8222
lhand -27.5183 26.4357
lfingers 7.12502
lthumb -0.920668 56.4135
rfemur -7.19523 -5.70961 8.17077
rtibia 66.2808
rfoot 3.74594 -4.93878
rtoes 1.52012
lfemur -9.08114 0.412802 -27.5216
ltibia 25.394
lfoot -6.14674 -1.13203
ltoes -8.50414
1720
root -4.98578 17.6045 -3.38219 -8.62002 -32.6475 5.86497
lowerback 2.87778 1.25286 -1.47059
upperback -0.890071 1.66587 2.24937
thorax -2.63839 0.87265 3.05461
lowerneck -25.7634 3.96819 -6.66076
upperneck 16.388 8.66356 -3.76496
head 9.29452 3.10761 1.038
rclavicle -6.75868e-015 3.65764e-014
rhumerus 13.7232 -56.3354 -10.1033
rradius 78.5007
rwrist -10.2576
rhand -40.992 0.447861
rfingers 7.12502
rthumb -13.9239 -29.0659
lclavicle -6.75868e-015 3.65764e-014
lhumerus -0.493165 48.2808 7.25193
lradius 84.4128
lwrist 13.8068
lhand -27.6353 26.2143
lfingers 7.12502
lthumb -1.03369 56.1915
rfemur -7.73976 -5.85402 8.0554
rtibia 67.126
rfoot 4.12231 -5.12115
rtoes -0.399936
lfemur -9.01905 0.283949 -27.6004
ltibia 25.5686
lfoot -6.39215 -1.7712
ltoes -9.95103
1721
root -5.0044 17.598 -3.36609 -8.68384 -31.9773 5.74479
lowerback 3.09267 1.22453 -1.58777
upperback -0.851789 1.62177 2.22802
thorax -2.71975 0.853015 3.09713
lowerneck -25.6026 3.85751 -6.74173
upperneck 16.3575 8.49611 -3.63733
head 9.2486 3.04635 1.06561
rclavicle 1.41137e-014 -1.27222e-014
rhumerus 14.083 -56.4429 -10.0384
rradius 79.4995
rwrist -9.65302
rhand -41.4612 0.784712
rfingers 7.12502
rthumb -14.376 -28.6975
lclavicle 1.41137e-014 -1.27222e-014
lhumerus -0.517457 48.7149 7.24753
lradius 85.329
lwrist 13.8162
lhand -27.7858 26.1449
lfingers 7.12502
lthumb -1.17903 56.1214
rfemur -8.16262 -5.94036 8.04292
rtibia 67.8616
rfoot 4.17148 -5.26598
rtoes -2.50332
lfemur -8.90749 0.285033 -27.5755
ltibia 25.7573
lfoot -6.49628 -2.29601
ltoes -9.53545
1722
root -5.01423 17.5884 -3.34959 -8.77991 -31.3028 5.62367
lowerback 3.3348 1.20743 -1.56955
upperback -0.771835 1.59683 2.19337
thorax -2.77033 0.839678 3.04851
lowerneck -25.6368 3.72219 -6.88939
upperneck 16.4744 8.34321 -3.48208
head 9.28394 2.9784 1.12223
rclavicle -5.10877e-014 2.8625e-014
rhumerus 14.432 -56.5668 -9.98886
rradius 80.5154
rwrist -8.95979
rhand -41.9899 0.769101
rfingers 7.12502
rthumb -14.8855 -28.6761
lclavicle -5.10877e-014 2.8625e-014
lhumerus -0.509277 49.1131 7.22519
lradius 86.0939
lwrist 13.9364
lhand -28.1548 26.0732
lfingers 7.12502
lthumb -1.5354 56.0474
rfemur -8.46724 -6.00244 7.9757
rtibia 68.4876
rfoot 3.91401 -5.26439
rtoes -2.50758
lfemur -8.76381 0.250155 -27.569
ltibia 25.9416
lfoot -6.63878 -2.79581
ltoes -9.59359
1723
root -5.02459 17.5774 -3.33889 -8.78639 -30.577 5.53302
lowerback 3.43169 1.17416 -1.59969
upperback -0.627792 1.54798 2.14134
thorax -2.6724 0.812684 3.01407
lowerneck -25.8708 3.56706 -7.03278
upperneck 16.5978 8.16916 -3.27523
head 9.35331 2.90304 1.19728
rclavicle 6.01324e-014 6.36111e-015
rhumerus 15.1176 -56.9176 -10.4053
rradius 81.4601
rwrist -8.13466
rhand -42.3121 0.788569
rfingers 7.12502
rthumb -15.1958 -28.6334
lclavicle 6.01324e-014 6.36111e-015
lhumerus -0.605916 49.6611 7.01634
lradius 86.7833
lwrist 14.1671
lhand -28.5378 26.0154
lfingers 7.12502
lthumb -1.90536 55.9867
rfemur -8.8167 -6.1407 7.89006
rtibia 69.0098
rfoot 3.40329 -4.94537
rtoes -1.67234
lfemur -8.7737 0.230992 -27.5775
ltibia 26.1465
lfoot -6.7133 -3.38951
ltoes -9.29149
